# xmcd
#
# Track frame offsets: 
#        150
#        5109
#        16960
#        28771
#        44687
#        58817
#        70500
#        80193
#        87344
#        98840
#        113498
#        127683
#        139898
#        143498
#        158289
#        165155
#        176035
#        188360
#        201945
#        213279
#
# Disc length: 2906 seconds
#
# Revision: 0
# Processed by: cddbd v1.5.2PL0 Copyright (c) Steve Scherf et al.
# Submitted via: ExactAudioCopy v0.99pb5
#
DISCID=010b5814
DTITLE=Raku - Emite semnale
DYEAR=2011
DGENRE=Hip-Hop
TTITLE0=Semnale
TTITLE1=Tu schimbarea
TTITLE2=Prin foc (feat. Cedry2k si DJ Faibo X)
TTITLE3=Iguana bandit (feat. Johnny Kinx)
TTITLE4=Tezaur ghiaur (feat. DJ Faibo X)
TTITLE5=Hardcore sudic (feat. Cabron)
TTITLE6=La macaz
TTITLE7=Pe pamant
TTITLE8=Rasuna sala
TTITLE9=Hip hop didactic (feat. Rimaru)
TTITLE10=Reale (cu Dragonu' si DJ Hefe)
TTITLE11=Dedicat lor (feat. DJ Undoo)
TTITLE12=De pe strada
TTITLE13=Cautand (feat. Ombladon)
TTITLE14=Din apa
TTITLE15=Cardiograma (feat. Elenna)
TTITLE16=International (feat. Johnny King, Elenna, Pacha Man, Toufi St
TTITLE16=encil))
TTITLE17=Rep industrial (feat. Hip)
TTITLE18=Titlu de piesa (feat. Kazi Ploae)
TTITLE19=In aer
EXTD=
EXTT0=
EXTT1=
EXTT2=
EXTT3=
EXTT4=
EXTT5=
EXTT6=
EXTT7=
EXTT8=
EXTT9=
EXTT10=
EXTT11=
EXTT12=
EXTT13=
EXTT14=
EXTT15=
EXTT16=
EXTT17=
EXTT18=
EXTT19=
PLAYORDER=
